<mxfile host="app.diagrams.net" agent="Mozilla/5.0 (Macintosh; Intel Mac OS X 10_15_7) AppleWebKit/605.1.15 (KHTML, like Gecko) Version/18.3 Safari/605.1.15" version="27.1.5">
  <diagram name="Page-1" id="-Ioz17W4KK-KJi5FUwi6">
    <mxGraphModel dx="1400" dy="804" grid="0" gridSize="20" guides="1" tooltips="1" connect="1" arrows="1" fold="1" page="1" pageScale="1" pageWidth="1169" pageHeight="827" background="light-dark(#FFFFFF,#EEEEEE)" math="0" shadow="0">
      <root>
        <mxCell id="0" />
        <mxCell id="1" parent="0" />
        <mxCell id="NI0qEB3K1_vKwQncWeiI-1" value="" style="rounded=1;whiteSpace=wrap;html=1;fillColor=light-dark(#A20025,#FFE6E6);fontColor=#ffffff;strokeColor=light-dark(#6F0000, #000000);fillStyle=solid;dashed=1;" vertex="1" parent="1">
          <mxGeometry x="33" y="128" width="221" height="603" as="geometry" />
        </mxCell>
        <mxCell id="NI0qEB3K1_vKwQncWeiI-2" value="&lt;b style=&quot;color: light-dark(rgb(0, 0, 0), rgb(0, 0, 0));&quot;&gt;&lt;font style=&quot;font-size: 18px;&quot;&gt;CLIENT LAYER&lt;/font&gt;&lt;/b&gt;" style="text;html=1;align=center;verticalAlign=middle;whiteSpace=wrap;rounded=0;" vertex="1" parent="1">
          <mxGeometry x="78" y="136.75" width="140" height="30" as="geometry" />
        </mxCell>
        <mxCell id="NI0qEB3K1_vKwQncWeiI-3" value="" style="rounded=1;whiteSpace=wrap;html=1;fillColor=light-dark(#FFFFFF,#E6FFFF);dashed=1;strokeColor=light-dark(#000000,#000000);" vertex="1" parent="1">
          <mxGeometry x="323" y="128" width="221" height="600" as="geometry" />
        </mxCell>
        <mxCell id="NI0qEB3K1_vKwQncWeiI-4" value="&lt;b style=&quot;color: light-dark(rgb(0, 0, 0), rgb(0, 0, 0));&quot;&gt;&lt;font style=&quot;font-size: 18px;&quot;&gt;API GATEWAY LAYER&lt;/font&gt;&lt;/b&gt;" style="text;html=1;align=center;verticalAlign=middle;whiteSpace=wrap;rounded=0;" vertex="1" parent="1">
          <mxGeometry x="333" y="141" width="207" height="30" as="geometry" />
        </mxCell>
        <mxCell id="NI0qEB3K1_vKwQncWeiI-6" value="" style="rounded=1;whiteSpace=wrap;html=1;fillColor=light-dark(#FFFFFF,#E6FFE6);dashed=1;strokeColor=light-dark(#000000,#000000);" vertex="1" parent="1">
          <mxGeometry x="613" y="127" width="222" height="600" as="geometry" />
        </mxCell>
        <mxCell id="NI0qEB3K1_vKwQncWeiI-7" value="&lt;b style=&quot;color: light-dark(rgb(0, 0, 0), rgb(0, 0, 0));&quot;&gt;&lt;font style=&quot;font-size: 18px;&quot;&gt;CORE SERVICES LAYER&lt;/font&gt;&lt;/b&gt;" style="text;html=1;align=center;verticalAlign=middle;whiteSpace=wrap;rounded=0;" vertex="1" parent="1">
          <mxGeometry x="616" y="141" width="219" height="30" as="geometry" />
        </mxCell>
        <mxCell id="NI0qEB3K1_vKwQncWeiI-11" value="" style="rounded=1;whiteSpace=wrap;html=1;fillColor=light-dark(#FFFFFF,#FFFACD);gradientColor=none;dashed=1;strokeColor=light-dark(#000000,#000000);" vertex="1" parent="1">
          <mxGeometry x="904" y="132" width="222" height="593" as="geometry" />
        </mxCell>
        <mxCell id="NI0qEB3K1_vKwQncWeiI-12" value="&lt;b style=&quot;color: light-dark(rgb(0, 0, 0), rgb(0, 0, 0));&quot;&gt;&lt;font style=&quot;font-size: 18px;&quot;&gt;DATA LAYER&lt;/font&gt;&lt;/b&gt;" style="text;html=1;align=center;verticalAlign=middle;whiteSpace=wrap;rounded=0;" vertex="1" parent="1">
          <mxGeometry x="940" y="136.75" width="160" height="30" as="geometry" />
        </mxCell>
        <mxCell id="NI0qEB3K1_vKwQncWeiI-48" style="edgeStyle=orthogonalEdgeStyle;rounded=0;orthogonalLoop=1;jettySize=auto;html=1;exitX=1;exitY=0.5;exitDx=0;exitDy=0;entryX=0;entryY=0.5;entryDx=0;entryDy=0;strokeColor=light-dark(#000000,#000000);" edge="1" parent="1" source="NI0qEB3K1_vKwQncWeiI-14" target="NI0qEB3K1_vKwQncWeiI-24">
          <mxGeometry relative="1" as="geometry" />
        </mxCell>
        <mxCell id="NI0qEB3K1_vKwQncWeiI-14" value="" style="rounded=1;whiteSpace=wrap;html=1;fillColor=light-dark(#000000,#FFB5AF);strokeColor=light-dark(#000000,#FF6666);" vertex="1" parent="1">
          <mxGeometry x="58" y="266" width="178" height="231" as="geometry" />
        </mxCell>
        <mxCell id="NI0qEB3K1_vKwQncWeiI-51" style="edgeStyle=orthogonalEdgeStyle;rounded=0;orthogonalLoop=1;jettySize=auto;html=1;exitX=1;exitY=0.5;exitDx=0;exitDy=0;entryX=0;entryY=0.5;entryDx=0;entryDy=0;strokeColor=light-dark(#000000,#000000);startArrow=blockThin;startFill=1;" edge="1" parent="1" source="NI0qEB3K1_vKwQncWeiI-15" target="NI0qEB3K1_vKwQncWeiI-25">
          <mxGeometry relative="1" as="geometry" />
        </mxCell>
        <mxCell id="NI0qEB3K1_vKwQncWeiI-15" value="&lt;span style=&quot;color: light-dark(rgb(0, 0, 0), rgb(0, 0, 0));&quot;&gt;&lt;i&gt;&lt;font style=&quot;font-size: 16px;&quot;&gt;&lt;span style=&quot;caret-color: rgba(0, 0, 0, 0);&quot;&gt;WebSocket Connections&lt;/span&gt;&amp;nbsp;&lt;/font&gt;&lt;/i&gt;&lt;/span&gt;" style="rounded=1;whiteSpace=wrap;html=1;fillColor=light-dark(#FFFFFF,#FFB5AF);strokeColor=light-dark(#000000,#FF6666);" vertex="1" parent="1">
          <mxGeometry x="59" y="536" width="178" height="61" as="geometry" />
        </mxCell>
        <mxCell id="NI0qEB3K1_vKwQncWeiI-16" value="&lt;span style=&quot;color: light-dark(rgb(0, 0, 0), rgb(0, 0, 0));&quot;&gt;&lt;i&gt;&lt;font style=&quot;font-size: 17px;&quot;&gt;Signal Apps&lt;/font&gt;&lt;/i&gt;&lt;/span&gt;" style="text;html=1;align=center;verticalAlign=middle;whiteSpace=wrap;rounded=0;" vertex="1" parent="1">
          <mxGeometry x="80.5" y="267" width="126" height="30" as="geometry" />
        </mxCell>
        <mxCell id="NI0qEB3K1_vKwQncWeiI-17" value="&lt;span style=&quot;caret-color: rgba(0, 0, 0, 0); color: light-dark(rgb(0, 0, 0), rgb(0, 0, 0));&quot;&gt;&lt;font style=&quot;font-size: 15px;&quot;&gt;IOS App&lt;/font&gt;&lt;/span&gt;" style="rounded=1;whiteSpace=wrap;html=1;fillColor=light-dark(#FFFFFF,#E5CCFF);strokeColor=light-dark(#000000,#000000);" vertex="1" parent="1">
          <mxGeometry x="74.5" y="308" width="145" height="41" as="geometry" />
        </mxCell>
        <mxCell id="NI0qEB3K1_vKwQncWeiI-18" value="&lt;span style=&quot;caret-color: rgb(237, 237, 237); color: light-dark(rgb(0, 0, 0), rgb(0, 0, 0));&quot;&gt;&lt;font style=&quot;font-size: 15px;&quot;&gt;Android App&lt;/font&gt;&lt;/span&gt;" style="rounded=1;whiteSpace=wrap;html=1;fillColor=light-dark(#FFFFFF,#E5CCFF);strokeColor=light-dark(#000000,#000000);" vertex="1" parent="1">
          <mxGeometry x="74.5" y="373" width="147" height="41" as="geometry" />
        </mxCell>
        <mxCell id="NI0qEB3K1_vKwQncWeiI-19" value="&lt;span style=&quot;caret-color: rgb(237, 237, 237); color: light-dark(rgb(0, 0, 0), rgb(0, 0, 0));&quot;&gt;&lt;font style=&quot;font-size: 15px;&quot;&gt;Desktop App&lt;/font&gt;&lt;/span&gt;" style="rounded=1;whiteSpace=wrap;html=1;fillColor=light-dark(#FFFFFF,#E5CCFF);strokeColor=light-dark(#000000,#000000);" vertex="1" parent="1">
          <mxGeometry x="73" y="432" width="148" height="41" as="geometry" />
        </mxCell>
        <mxCell id="NI0qEB3K1_vKwQncWeiI-53" style="edgeStyle=orthogonalEdgeStyle;rounded=0;orthogonalLoop=1;jettySize=auto;html=1;exitX=1;exitY=0.5;exitDx=0;exitDy=0;entryX=0;entryY=0.5;entryDx=0;entryDy=0;strokeColor=light-dark(#000000,#000000);" edge="1" parent="1" source="NI0qEB3K1_vKwQncWeiI-22" target="NI0qEB3K1_vKwQncWeiI-26">
          <mxGeometry relative="1" as="geometry" />
        </mxCell>
        <mxCell id="NI0qEB3K1_vKwQncWeiI-22" value="&lt;font style=&quot;font-size: 16px;&quot;&gt;&lt;span style=&quot;caret-color: rgb(237, 237, 237); color: light-dark(rgb(0, 0, 0), rgb(0, 0, 0));&quot;&gt;&lt;i&gt;Authentication&amp;nbsp;&lt;/i&gt;&lt;/span&gt;&lt;/font&gt;&lt;div&gt;&lt;font style=&quot;font-size: 16px;&quot;&gt;&lt;span style=&quot;caret-color: rgb(237, 237, 237); color: light-dark(rgb(0, 0, 0), rgb(0, 0, 0));&quot;&gt;&lt;i&gt;Status&lt;/i&gt;&lt;/span&gt;&lt;/font&gt;&lt;/div&gt;" style="rounded=1;whiteSpace=wrap;html=1;fillColor=light-dark(#FFFFFF,#FFB5AF);strokeColor=light-dark(#000000,#FF6666);" vertex="1" parent="1">
          <mxGeometry x="61" y="624" width="178" height="61" as="geometry" />
        </mxCell>
        <mxCell id="NI0qEB3K1_vKwQncWeiI-24" value="&lt;font style=&quot;font-size: 18px;&quot;&gt;&lt;span style=&quot;caret-color: rgb(237, 237, 237); color: light-dark(rgb(0, 0, 0), rgb(0, 0, 0));&quot;&gt;&lt;i&gt;Dropwizard&lt;/i&gt;&lt;/span&gt;&lt;/font&gt;&lt;div&gt;&lt;font style=&quot;font-size: 18px;&quot;&gt;&lt;span style=&quot;caret-color: rgb(237, 237, 237); color: light-dark(rgb(0, 0, 0), rgb(0, 0, 0));&quot;&gt;&lt;i&gt;REST API server&lt;/i&gt;&lt;/span&gt;&lt;/font&gt;&lt;/div&gt;" style="rounded=1;whiteSpace=wrap;html=1;fillColor=light-dark(#FFFFFF,#CCE5FF);strokeColor=light-dark(#000000,#3A88FE);" vertex="1" parent="1">
          <mxGeometry x="343.5" y="351" width="186" height="61" as="geometry" />
        </mxCell>
        <mxCell id="NI0qEB3K1_vKwQncWeiI-25" value="&lt;font size=&quot;4&quot;&gt;&lt;span style=&quot;caret-color: rgb(33, 33, 33); color: light-dark(rgb(0, 0, 0), rgb(0, 0, 0));&quot;&gt;&lt;i&gt;WebSocket Handler&lt;/i&gt;&lt;/span&gt;&lt;/font&gt;" style="rounded=1;whiteSpace=wrap;html=1;fillColor=light-dark(#FFFFFF,#CCE5FF);strokeColor=light-dark(#000000,#3A88FE);" vertex="1" parent="1">
          <mxGeometry x="343.5" y="536" width="186" height="61" as="geometry" />
        </mxCell>
        <mxCell id="NI0qEB3K1_vKwQncWeiI-59" style="edgeStyle=orthogonalEdgeStyle;rounded=0;orthogonalLoop=1;jettySize=auto;html=1;exitX=1;exitY=0.5;exitDx=0;exitDy=0;entryX=0;entryY=0.5;entryDx=0;entryDy=0;strokeColor=light-dark(#000000,#000000);" edge="1" parent="1" source="NI0qEB3K1_vKwQncWeiI-26" target="NI0qEB3K1_vKwQncWeiI-31">
          <mxGeometry relative="1" as="geometry" />
        </mxCell>
        <mxCell id="NI0qEB3K1_vKwQncWeiI-26" value="&lt;font size=&quot;4&quot;&gt;&lt;span style=&quot;caret-color: rgb(33, 33, 33); color: light-dark(rgb(0, 0, 0), rgb(0, 0, 0));&quot;&gt;&lt;i&gt;Authentication Service&lt;/i&gt;&lt;/span&gt;&lt;/font&gt;" style="rounded=1;whiteSpace=wrap;html=1;fillColor=light-dark(#FFFFFF,#CCE5FF);strokeColor=light-dark(#000000,#3A88FE);" vertex="1" parent="1">
          <mxGeometry x="343.5" y="623" width="186" height="63" as="geometry" />
        </mxCell>
        <mxCell id="NI0qEB3K1_vKwQncWeiI-27" value="&lt;font size=&quot;4&quot;&gt;&lt;span style=&quot;caret-color: rgb(33, 33, 33); color: light-dark(rgb(0, 0, 0), rgb(0, 0, 0));&quot;&gt;&lt;i&gt;Redis-based&amp;nbsp;&lt;/i&gt;&lt;/span&gt;&lt;/font&gt;&lt;div&gt;&lt;font size=&quot;4&quot;&gt;&lt;span style=&quot;caret-color: rgb(33, 33, 33); color: light-dark(rgb(0, 0, 0), rgb(0, 0, 0));&quot;&gt;&lt;i&gt;Rate Limiter&lt;/i&gt;&lt;/span&gt;&lt;/font&gt;&lt;/div&gt;" style="rounded=1;whiteSpace=wrap;html=1;fillColor=light-dark(#FFFFFF,#CCE5FF);strokeColor=light-dark(#000000,#3A88FE);" vertex="1" parent="1">
          <mxGeometry x="343.5" y="440" width="186" height="61" as="geometry" />
        </mxCell>
        <mxCell id="NI0qEB3K1_vKwQncWeiI-57" style="edgeStyle=orthogonalEdgeStyle;rounded=0;orthogonalLoop=1;jettySize=auto;html=1;exitX=1;exitY=0.5;exitDx=0;exitDy=0;entryX=0;entryY=0.5;entryDx=0;entryDy=0;strokeColor=light-dark(#000000,#000000);" edge="1" parent="1" source="NI0qEB3K1_vKwQncWeiI-28" target="NI0qEB3K1_vKwQncWeiI-30">
          <mxGeometry relative="1" as="geometry" />
        </mxCell>
        <mxCell id="NI0qEB3K1_vKwQncWeiI-77" style="edgeStyle=orthogonalEdgeStyle;rounded=0;orthogonalLoop=1;jettySize=auto;html=1;exitX=1;exitY=0.5;exitDx=0;exitDy=0;entryX=0;entryY=0.5;entryDx=0;entryDy=0;strokeColor=light-dark(#000000,#000000);" edge="1" parent="1" source="NI0qEB3K1_vKwQncWeiI-28" target="NI0qEB3K1_vKwQncWeiI-33">
          <mxGeometry relative="1" as="geometry" />
        </mxCell>
        <mxCell id="NI0qEB3K1_vKwQncWeiI-28" value="&lt;font size=&quot;4&quot;&gt;&lt;span style=&quot;caret-color: rgb(33, 33, 33); color: light-dark(rgb(0, 0, 0), rgb(0, 0, 0));&quot;&gt;&lt;i&gt;Message Controller&lt;/i&gt;&lt;/span&gt;&lt;/font&gt;" style="rounded=1;whiteSpace=wrap;html=1;fillColor=light-dark(#FFFFFF,#CCE5FF);strokeColor=light-dark(#000000,#3A88FE);" vertex="1" parent="1">
          <mxGeometry x="343.5" y="170" width="186" height="61" as="geometry" />
        </mxCell>
        <mxCell id="NI0qEB3K1_vKwQncWeiI-29" value="&lt;font size=&quot;4&quot;&gt;&lt;span style=&quot;caret-color: rgb(33, 33, 33); color: light-dark(rgb(0, 0, 0), rgb(0, 0, 0));&quot;&gt;&lt;i&gt;Load Balancer&lt;/i&gt;&lt;/span&gt;&lt;/font&gt;" style="rounded=1;whiteSpace=wrap;html=1;fillColor=light-dark(#008A00,#CCE5FF);strokeColor=light-dark(#005700,#3A88FE);fontColor=#ffffff;" vertex="1" parent="1">
          <mxGeometry x="343.5" y="260" width="186" height="61" as="geometry" />
        </mxCell>
        <mxCell id="NI0qEB3K1_vKwQncWeiI-95" style="edgeStyle=orthogonalEdgeStyle;rounded=0;orthogonalLoop=1;jettySize=auto;html=1;exitX=1;exitY=0.25;exitDx=0;exitDy=0;entryX=0;entryY=0.5;entryDx=0;entryDy=0;strokeColor=light-dark(#000000,#000000);" edge="1" parent="1" source="NI0qEB3K1_vKwQncWeiI-30" target="NI0qEB3K1_vKwQncWeiI-39">
          <mxGeometry relative="1" as="geometry" />
        </mxCell>
        <mxCell id="NI0qEB3K1_vKwQncWeiI-30" value="&lt;span style=&quot;text-align: start; caret-color: rgb(0, 0, 0); color: light-dark(rgb(0, 0, 0), rgb(0, 0, 0));&quot;&gt;&lt;i&gt;&lt;font style=&quot;font-size: 17px;&quot;&gt;Message Service&lt;/font&gt;&lt;/i&gt;&lt;/span&gt;" style="rounded=1;whiteSpace=wrap;html=1;fillColor=light-dark(#FFFFFF,#B1DD8C);strokeColor=light-dark(#000000,#38571A);" vertex="1" parent="1">
          <mxGeometry x="631" y="177" width="187" height="45" as="geometry" />
        </mxCell>
        <mxCell id="NI0qEB3K1_vKwQncWeiI-67" style="edgeStyle=orthogonalEdgeStyle;rounded=0;orthogonalLoop=1;jettySize=auto;html=1;exitX=1;exitY=0.5;exitDx=0;exitDy=0;entryX=0;entryY=0.5;entryDx=0;entryDy=0;strokeColor=light-dark(#000000,#000000);" edge="1" parent="1" source="NI0qEB3K1_vKwQncWeiI-31" target="NI0qEB3K1_vKwQncWeiI-45">
          <mxGeometry relative="1" as="geometry" />
        </mxCell>
        <mxCell id="NI0qEB3K1_vKwQncWeiI-31" value="&lt;font size=&quot;4&quot;&gt;&lt;span style=&quot;caret-color: rgb(209, 209, 209); color: light-dark(rgb(0, 0, 0), rgb(0, 0, 0));&quot;&gt;&lt;i&gt;Account Service&lt;/i&gt;&lt;/span&gt;&lt;/font&gt;" style="rounded=1;whiteSpace=wrap;html=1;fillColor=light-dark(#FFFFFF,#B1DD8C);strokeColor=light-dark(#000000,#38571A);" vertex="1" parent="1">
          <mxGeometry x="632.5" y="632" width="186" height="45" as="geometry" />
        </mxCell>
        <mxCell id="NI0qEB3K1_vKwQncWeiI-32" value="&lt;span style=&quot;text-align: start; caret-color: rgb(0, 0, 0); color: light-dark(rgb(0, 0, 0), rgb(0, 0, 0));&quot;&gt;&lt;i&gt;&lt;font style=&quot;font-size: 17px;&quot;&gt;Device Service&lt;/font&gt;&lt;/i&gt;&lt;/span&gt;" style="rounded=1;whiteSpace=wrap;html=1;fillColor=light-dark(#FFFFFF,#B1DD8C);strokeColor=light-dark(#000000,#38571A);" vertex="1" parent="1">
          <mxGeometry x="631" y="297" width="186" height="45" as="geometry" />
        </mxCell>
        <mxCell id="NI0qEB3K1_vKwQncWeiI-33" value="&lt;font size=&quot;4&quot;&gt;&lt;span style=&quot;color: light-dark(rgb(0, 0, 0), rgb(0, 0, 0)); caret-color: rgb(33, 33, 33);&quot;&gt;&lt;i&gt;Key&amp;nbsp;&lt;span style=&quot;caret-color: rgb(209, 209, 209);&quot;&gt;Management&lt;/span&gt;&amp;nbsp; Service&lt;/i&gt;&lt;/span&gt;&lt;/font&gt;" style="rounded=1;whiteSpace=wrap;html=1;fillColor=light-dark(#FFFFFF,#B1DD8C);strokeColor=light-dark(#000000,#38571A);" vertex="1" parent="1">
          <mxGeometry x="632.5" y="237.5" width="186" height="45" as="geometry" />
        </mxCell>
        <mxCell id="NI0qEB3K1_vKwQncWeiI-81" style="edgeStyle=orthogonalEdgeStyle;rounded=0;orthogonalLoop=1;jettySize=auto;html=1;exitX=1;exitY=0.5;exitDx=0;exitDy=0;entryX=0;entryY=0.5;entryDx=0;entryDy=0;strokeColor=light-dark(#000000,#000000);" edge="1" parent="1" source="NI0qEB3K1_vKwQncWeiI-34" target="NI0qEB3K1_vKwQncWeiI-47">
          <mxGeometry relative="1" as="geometry" />
        </mxCell>
        <mxCell id="NI0qEB3K1_vKwQncWeiI-34" value="&lt;font size=&quot;4&quot;&gt;&lt;span style=&quot;caret-color: rgb(33, 33, 33); color: light-dark(rgb(0, 0, 0), rgb(0, 0, 0));&quot;&gt;&lt;i&gt;Push Notification Service&lt;/i&gt;&lt;/span&gt;&lt;/font&gt;" style="rounded=1;whiteSpace=wrap;html=1;fillColor=light-dark(#FFFFFF,#B1DD8C);strokeColor=light-dark(#000000,#38571A);" vertex="1" parent="1">
          <mxGeometry x="632.5" y="563" width="186" height="45" as="geometry" />
        </mxCell>
        <mxCell id="NI0qEB3K1_vKwQncWeiI-63" style="edgeStyle=orthogonalEdgeStyle;rounded=0;orthogonalLoop=1;jettySize=auto;html=1;exitX=1;exitY=0.5;exitDx=0;exitDy=0;entryX=0;entryY=0.5;entryDx=0;entryDy=0;strokeColor=light-dark(#000000,#000000);" edge="1" parent="1" source="NI0qEB3K1_vKwQncWeiI-35" target="NI0qEB3K1_vKwQncWeiI-44">
          <mxGeometry relative="1" as="geometry" />
        </mxCell>
        <mxCell id="NI0qEB3K1_vKwQncWeiI-35" value="&lt;font size=&quot;4&quot;&gt;&lt;span style=&quot;caret-color: rgb(209, 209, 209); color: light-dark(rgb(0, 0, 0), rgb(0, 0, 0));&quot;&gt;&lt;i&gt;Background Processors&lt;/i&gt;&lt;/span&gt;&lt;/font&gt;" style="rounded=1;whiteSpace=wrap;html=1;fillColor=light-dark(#FFFFFF,#B1DD8C);strokeColor=light-dark(#000000,#38571A);" vertex="1" parent="1">
          <mxGeometry x="632.5" y="491" width="186" height="45" as="geometry" />
        </mxCell>
        <mxCell id="NI0qEB3K1_vKwQncWeiI-92" value="" style="edgeStyle=orthogonalEdgeStyle;rounded=0;orthogonalLoop=1;jettySize=auto;html=1;" edge="1" parent="1" source="NI0qEB3K1_vKwQncWeiI-36" target="NI0qEB3K1_vKwQncWeiI-87">
          <mxGeometry relative="1" as="geometry" />
        </mxCell>
        <mxCell id="NI0qEB3K1_vKwQncWeiI-36" value="&lt;font size=&quot;4&quot;&gt;&lt;span style=&quot;caret-color: rgb(33, 33, 33); color: light-dark(rgb(0, 0, 0), rgb(0, 0, 0));&quot;&gt;&lt;i&gt;Profile Service&lt;/i&gt;&lt;/span&gt;&lt;/font&gt;" style="rounded=1;whiteSpace=wrap;html=1;fillColor=light-dark(#FFFFFF,#B1DD8C);strokeColor=light-dark(#000000,#38571A);" vertex="1" parent="1">
          <mxGeometry x="632.5" y="426" width="186" height="45" as="geometry" />
        </mxCell>
        <mxCell id="NI0qEB3K1_vKwQncWeiI-37" value="&lt;font size=&quot;4&quot;&gt;&lt;span style=&quot;caret-color: rgb(33, 33, 33); color: light-dark(rgb(0, 0, 0), rgb(0, 0, 0));&quot;&gt;&lt;i&gt;Group Service&lt;/i&gt;&lt;/span&gt;&lt;/font&gt;" style="rounded=1;whiteSpace=wrap;html=1;fillColor=light-dark(#FFFFFF,#B1DD8C);strokeColor=light-dark(#000000,#38571A);" vertex="1" parent="1">
          <mxGeometry x="632.5" y="359" width="186" height="45" as="geometry" />
        </mxCell>
        <mxCell id="NI0qEB3K1_vKwQncWeiI-38" style="edgeStyle=orthogonalEdgeStyle;rounded=0;orthogonalLoop=1;jettySize=auto;html=1;exitX=0.5;exitY=1;exitDx=0;exitDy=0;" edge="1" parent="1" source="NI0qEB3K1_vKwQncWeiI-36" target="NI0qEB3K1_vKwQncWeiI-36">
          <mxGeometry relative="1" as="geometry" />
        </mxCell>
        <mxCell id="NI0qEB3K1_vKwQncWeiI-39" value="" style="rounded=1;whiteSpace=wrap;html=1;fillColor=light-dark(#FFFFFF,#FFFF99);strokeColor=light-dark(#000000,#999900);" vertex="1" parent="1">
          <mxGeometry x="922" y="169.75" width="186" height="217.25" as="geometry" />
        </mxCell>
        <mxCell id="NI0qEB3K1_vKwQncWeiI-40" value="&lt;span style=&quot;text-align: start; caret-color: rgb(0, 0, 0); color: light-dark(rgb(0, 0, 0), rgb(0, 0, 0));&quot;&gt;&lt;font style=&quot;font-size: 17px;&quot;&gt;Redis Pub/Sub Detail Box&lt;/font&gt;&lt;/span&gt;" style="rounded=1;whiteSpace=wrap;html=1;fillColor=light-dark(#FFFFFF,#FFCCFF);strokeColor=light-dark(#000000,#000000);" vertex="1" parent="1">
          <mxGeometry x="944.5" y="215" width="144" height="67.5" as="geometry" />
        </mxCell>
        <mxCell id="NI0qEB3K1_vKwQncWeiI-41" value="&lt;span style=&quot;text-align: start; caret-color: rgb(0, 0, 0); color: light-dark(rgb(0, 0, 0), rgb(0, 0, 0));&quot;&gt;&lt;font style=&quot;font-size: 17px;&quot;&gt;Redis Lua Scripts Detail Box&lt;/font&gt;&lt;/span&gt;" style="rounded=1;whiteSpace=wrap;html=1;fillColor=light-dark(#FFFFFF,#FFCCFF);strokeColor=light-dark(#000000,#000000);" vertex="1" parent="1">
          <mxGeometry x="949" y="301.5" width="142" height="67.5" as="geometry" />
        </mxCell>
        <mxCell id="NI0qEB3K1_vKwQncWeiI-42" style="edgeStyle=orthogonalEdgeStyle;rounded=0;orthogonalLoop=1;jettySize=auto;html=1;exitX=0.5;exitY=1;exitDx=0;exitDy=0;" edge="1" parent="1" source="NI0qEB3K1_vKwQncWeiI-39" target="NI0qEB3K1_vKwQncWeiI-39">
          <mxGeometry relative="1" as="geometry" />
        </mxCell>
        <mxCell id="NI0qEB3K1_vKwQncWeiI-43" value="&lt;i style=&quot;color: light-dark(rgb(0, 0, 0), rgb(0, 0, 0));&quot;&gt;&lt;font style=&quot;font-size: 18px;&quot;&gt;Redis Cluster&lt;/font&gt;&lt;/i&gt;" style="text;html=1;align=center;verticalAlign=middle;whiteSpace=wrap;rounded=0;" vertex="1" parent="1">
          <mxGeometry x="947.5" y="177" width="153" height="30" as="geometry" />
        </mxCell>
        <mxCell id="NI0qEB3K1_vKwQncWeiI-88" style="edgeStyle=orthogonalEdgeStyle;rounded=0;orthogonalLoop=1;jettySize=auto;html=1;exitX=1;exitY=0.5;exitDx=0;exitDy=0;entryX=1;entryY=0.5;entryDx=0;entryDy=0;curved=0;strokeColor=light-dark(#000000,#000000);startArrow=classicThin;startFill=1;endArrow=none;" edge="1" parent="1" source="NI0qEB3K1_vKwQncWeiI-44" target="NI0qEB3K1_vKwQncWeiI-39">
          <mxGeometry relative="1" as="geometry">
            <Array as="points">
              <mxPoint x="1118" y="514" />
              <mxPoint x="1118" y="278" />
            </Array>
          </mxGeometry>
        </mxCell>
        <mxCell id="NI0qEB3K1_vKwQncWeiI-44" value="&lt;font size=&quot;4&quot;&gt;&lt;span style=&quot;caret-color: rgb(33, 33, 33); color: light-dark(rgb(0, 0, 0), rgb(0, 0, 0));&quot;&gt;&lt;i&gt;DynamoDB(Messages)&lt;/i&gt;&lt;/span&gt;&lt;/font&gt;" style="rounded=1;whiteSpace=wrap;html=1;fillColor=light-dark(#FFFFFF,#FFFF99);strokeColor=light-dark(#000000,#999900);" vertex="1" parent="1">
          <mxGeometry x="923.5" y="483" width="186" height="61" as="geometry" />
        </mxCell>
        <mxCell id="NI0qEB3K1_vKwQncWeiI-45" value="&lt;font size=&quot;4&quot;&gt;&lt;span style=&quot;caret-color: rgb(33, 33, 33); color: light-dark(rgb(0, 0, 0), rgb(0, 0, 0));&quot;&gt;&lt;i&gt;PostgreSQL(Accounts)&lt;/i&gt;&lt;/span&gt;&lt;/font&gt;" style="rounded=1;whiteSpace=wrap;html=1;fillColor=light-dark(#FFFFFF,#FFFF99);strokeColor=light-dark(#000000,#999900);" vertex="1" parent="1">
          <mxGeometry x="922" y="624" width="186" height="61" as="geometry" />
        </mxCell>
        <mxCell id="NI0qEB3K1_vKwQncWeiI-85" style="edgeStyle=orthogonalEdgeStyle;rounded=0;orthogonalLoop=1;jettySize=auto;html=1;exitX=0;exitY=0.5;exitDx=0;exitDy=0;strokeColor=light-dark(#000000,#000000);" edge="1" parent="1" source="NI0qEB3K1_vKwQncWeiI-46">
          <mxGeometry relative="1" as="geometry">
            <mxPoint x="817" y="205" as="targetPoint" />
            <Array as="points">
              <mxPoint x="850" y="440" />
              <mxPoint x="850" y="205" />
            </Array>
          </mxGeometry>
        </mxCell>
        <mxCell id="NI0qEB3K1_vKwQncWeiI-46" value="&lt;font size=&quot;4&quot;&gt;&lt;span style=&quot;caret-color: rgb(33, 33, 33); color: light-dark(rgb(0, 0, 0), rgb(0, 0, 0));&quot;&gt;&lt;i&gt;AWS S3(Attachments)&lt;/i&gt;&lt;/span&gt;&lt;/font&gt;" style="rounded=1;whiteSpace=wrap;html=1;fillColor=light-dark(#FFFFFF,#FFFF99);strokeColor=light-dark(#000000,#999900);" vertex="1" parent="1">
          <mxGeometry x="922" y="413.5" width="186" height="61" as="geometry" />
        </mxCell>
        <mxCell id="NI0qEB3K1_vKwQncWeiI-47" value="&lt;font size=&quot;4&quot;&gt;&lt;span style=&quot;caret-color: rgb(33, 33, 33); color: light-dark(rgb(0, 0, 0), rgb(0, 0, 0));&quot;&gt;&lt;i&gt;External Services&lt;/i&gt;&lt;/span&gt;&lt;/font&gt;" style="rounded=1;whiteSpace=wrap;html=1;fillColor=light-dark(#FFFFFF,#FFFF99);strokeColor=light-dark(#000000,#999900);" vertex="1" parent="1">
          <mxGeometry x="925" y="563" width="183" height="45" as="geometry" />
        </mxCell>
        <mxCell id="NI0qEB3K1_vKwQncWeiI-49" value="&lt;span style=&quot;color: light-dark(rgb(0, 0, 0), rgb(0, 0, 0)); background-color: light-dark(rgb(255, 255, 255), rgb(255, 255, 255));&quot;&gt;&lt;b&gt;&lt;i&gt;REST calls&lt;/i&gt;&lt;/b&gt;&lt;/span&gt;" style="text;html=1;align=center;verticalAlign=middle;whiteSpace=wrap;rounded=0;" vertex="1" parent="1">
          <mxGeometry x="246" y="345" width="87" height="24" as="geometry" />
        </mxCell>
        <mxCell id="NI0qEB3K1_vKwQncWeiI-52" value="&lt;span style=&quot;color: light-dark(rgb(0, 0, 0), rgb(0, 0, 0)); background-color: light-dark(rgb(255, 255, 255), rgb(255, 255, 255));&quot;&gt;&lt;b&gt;&lt;i&gt;WebSocket&lt;/i&gt;&lt;/b&gt;&lt;/span&gt;" style="text;html=1;align=center;verticalAlign=middle;whiteSpace=wrap;rounded=0;" vertex="1" parent="1">
          <mxGeometry x="248" y="539" width="87" height="24" as="geometry" />
        </mxCell>
        <mxCell id="NI0qEB3K1_vKwQncWeiI-54" value="&lt;span style=&quot;color: light-dark(rgb(0, 0, 0), rgb(0, 0, 0)); background-color: light-dark(rgb(255, 255, 255), rgb(255, 255, 255));&quot;&gt;&lt;b&gt;&lt;i&gt;Auth&lt;/i&gt;&lt;/b&gt;&lt;/span&gt;&lt;div&gt;&lt;span style=&quot;color: light-dark(rgb(0, 0, 0), rgb(0, 0, 0)); background-color: light-dark(rgb(255, 255, 255), rgb(255, 255, 255));&quot;&gt;&lt;b&gt;&lt;i&gt;Tokens&lt;/i&gt;&lt;/b&gt;&lt;/span&gt;&lt;/div&gt;" style="text;html=1;align=center;verticalAlign=middle;whiteSpace=wrap;rounded=0;" vertex="1" parent="1">
          <mxGeometry x="248" y="626" width="87" height="24" as="geometry" />
        </mxCell>
        <mxCell id="NI0qEB3K1_vKwQncWeiI-58" value="&lt;span style=&quot;color: light-dark(rgb(0, 0, 0), rgb(0, 0, 0));&quot;&gt;&lt;b&gt;&lt;i&gt;&lt;span style=&quot;background-color: light-dark(rgb(255, 255, 255), rgb(255, 255, 255));&quot;&gt;Message&lt;/span&gt;&amp;nbsp;&lt;/i&gt;&lt;/b&gt;&lt;/span&gt;&lt;div&gt;&lt;span style=&quot;color: light-dark(rgb(0, 0, 0), rgb(0, 0, 0)); background-color: light-dark(rgb(255, 255, 255), rgb(255, 255, 255));&quot;&gt;&lt;b&gt;&lt;i&gt;Routing&lt;/i&gt;&lt;/b&gt;&lt;/span&gt;&lt;/div&gt;" style="text;html=1;align=center;verticalAlign=middle;whiteSpace=wrap;rounded=0;" vertex="1" parent="1">
          <mxGeometry x="537" y="170" width="87" height="24" as="geometry" />
        </mxCell>
        <mxCell id="NI0qEB3K1_vKwQncWeiI-60" value="&lt;span style=&quot;color: light-dark(rgb(0, 0, 0), rgb(0, 0, 0)); background-color: light-dark(rgb(255, 255, 255), rgb(255, 255, 255));&quot;&gt;&lt;b&gt;&lt;i&gt;User&amp;nbsp;&lt;/i&gt;&lt;/b&gt;&lt;/span&gt;&lt;div&gt;&lt;span style=&quot;color: light-dark(rgb(0, 0, 0), rgb(0, 0, 0)); background-color: light-dark(rgb(255, 255, 255), rgb(255, 255, 255));&quot;&gt;&lt;b&gt;&lt;i&gt;Lookup&lt;/i&gt;&lt;/b&gt;&lt;/span&gt;&lt;/div&gt;" style="text;html=1;align=center;verticalAlign=middle;whiteSpace=wrap;rounded=0;" vertex="1" parent="1">
          <mxGeometry x="537" y="626" width="87" height="24" as="geometry" />
        </mxCell>
        <mxCell id="NI0qEB3K1_vKwQncWeiI-62" value="&lt;span style=&quot;color: light-dark(rgb(0, 0, 0), rgb(0, 0, 0));&quot;&gt;&lt;b&gt;&lt;i&gt;&lt;span style=&quot;background-color: light-dark(rgb(255, 255, 255), rgb(255, 255, 255));&quot;&gt;Queue&lt;/span&gt;&amp;nbsp;&lt;/i&gt;&lt;/b&gt;&lt;/span&gt;&lt;div&gt;&lt;span style=&quot;color: light-dark(rgb(0, 0, 0), rgb(0, 0, 0)); background-color: light-dark(rgb(255, 255, 255), rgb(255, 255, 255));&quot;&gt;&lt;b&gt;&lt;i&gt;Messages&lt;/i&gt;&lt;/b&gt;&lt;/span&gt;&lt;/div&gt;" style="text;html=1;align=center;verticalAlign=middle;whiteSpace=wrap;rounded=0;" vertex="1" parent="1">
          <mxGeometry x="830" y="160" width="87" height="24" as="geometry" />
        </mxCell>
        <mxCell id="NI0qEB3K1_vKwQncWeiI-64" value="&lt;div&gt;&lt;span style=&quot;color: light-dark(rgb(0, 0, 0), rgb(0, 0, 0)); background-color: light-dark(rgb(255, 255, 255), rgb(255, 255, 255));&quot;&gt;&lt;b&gt;&lt;i&gt;Async&lt;/i&gt;&lt;/b&gt;&lt;/span&gt;&lt;/div&gt;&lt;div&gt;&lt;span style=&quot;color: light-dark(rgb(0, 0, 0), rgb(0, 0, 0)); background-color: light-dark(rgb(255, 255, 255), rgb(255, 255, 255));&quot;&gt;&lt;b&gt;&lt;i&gt;Writes&lt;/i&gt;&lt;/b&gt;&lt;/span&gt;&lt;/div&gt;" style="text;html=1;align=center;verticalAlign=middle;whiteSpace=wrap;rounded=0;" vertex="1" parent="1">
          <mxGeometry x="821.5" y="486" width="87" height="24" as="geometry" />
        </mxCell>
        <mxCell id="NI0qEB3K1_vKwQncWeiI-68" value="&lt;span style=&quot;color: light-dark(rgb(0, 0, 0), rgb(0, 0, 0));&quot;&gt;&lt;b&gt;&lt;i&gt;&lt;span style=&quot;background-color: light-dark(rgb(255, 255, 255), rgb(255, 255, 255));&quot;&gt;User&lt;/span&gt;&amp;nbsp;&lt;/i&gt;&lt;/b&gt;&lt;/span&gt;&lt;div&gt;&lt;span style=&quot;color: light-dark(rgb(0, 0, 0), rgb(0, 0, 0)); background-color: light-dark(rgb(255, 255, 255), rgb(255, 255, 255));&quot;&gt;&lt;b&gt;&lt;i&gt;Data&lt;/i&gt;&lt;/b&gt;&lt;/span&gt;&lt;/div&gt;" style="text;html=1;align=center;verticalAlign=middle;whiteSpace=wrap;rounded=0;" vertex="1" parent="1">
          <mxGeometry x="826" y="626" width="87" height="24" as="geometry" />
        </mxCell>
        <mxCell id="NI0qEB3K1_vKwQncWeiI-74" style="edgeStyle=orthogonalEdgeStyle;rounded=0;orthogonalLoop=1;jettySize=auto;html=1;exitX=1;exitY=0.5;exitDx=0;exitDy=0;entryX=0;entryY=0.5;entryDx=0;entryDy=0;startArrow=blockThin;startFill=1;strokeColor=light-dark(#000000,#000000);" edge="1" parent="1" source="NI0qEB3K1_vKwQncWeiI-23" target="NI0qEB3K1_vKwQncWeiI-28">
          <mxGeometry relative="1" as="geometry" />
        </mxCell>
        <mxCell id="NI0qEB3K1_vKwQncWeiI-23" value="&lt;font style=&quot;font-size: 16px;&quot;&gt;&lt;span style=&quot;caret-color: rgb(237, 237, 237); color: light-dark(rgb(0, 0, 0), rgb(0, 0, 0));&quot;&gt;&lt;i&gt;Message&lt;/i&gt;&lt;/span&gt;&lt;/font&gt;&lt;div&gt;&lt;font style=&quot;font-size: 16px;&quot;&gt;&lt;span style=&quot;caret-color: rgb(237, 237, 237); color: light-dark(rgb(0, 0, 0), rgb(0, 0, 0));&quot;&gt;&lt;i&gt;Encryption&lt;/i&gt;&lt;/span&gt;&lt;/font&gt;&lt;/div&gt;" style="rounded=1;whiteSpace=wrap;html=1;fillColor=light-dark(#FFFFFF,#FFB5AF);strokeColor=light-dark(#000000,#FF6666);" vertex="1" parent="1">
          <mxGeometry x="59" y="170" width="178" height="61" as="geometry" />
        </mxCell>
        <mxCell id="NI0qEB3K1_vKwQncWeiI-75" value="&lt;span style=&quot;color: light-dark(rgb(0, 0, 0), rgb(0, 0, 0)); background-color: light-dark(rgb(255, 255, 255), rgb(255, 255, 255));&quot;&gt;&lt;b&gt;&lt;i&gt;Encrypted&amp;nbsp;&lt;/i&gt;&lt;/b&gt;&lt;/span&gt;&lt;div&gt;&lt;span style=&quot;color: light-dark(rgb(0, 0, 0), rgb(0, 0, 0)); background-color: light-dark(rgb(255, 255, 255), rgb(255, 255, 255));&quot;&gt;&lt;b&gt;&lt;i&gt;Payload&lt;/i&gt;&lt;/b&gt;&lt;/span&gt;&lt;/div&gt;" style="text;html=1;align=center;verticalAlign=middle;whiteSpace=wrap;rounded=0;" vertex="1" parent="1">
          <mxGeometry x="246" y="170" width="87" height="24" as="geometry" />
        </mxCell>
        <mxCell id="NI0qEB3K1_vKwQncWeiI-79" value="&lt;span style=&quot;background-color: light-dark(rgb(255, 255, 255), rgb(255, 255, 255)); color: light-dark(rgb(255, 255, 255), rgb(0, 0, 0));&quot;&gt;&lt;b&gt;&lt;i&gt;Key&amp;nbsp;&lt;/i&gt;&lt;/b&gt;&lt;/span&gt;&lt;div&gt;&lt;span style=&quot;color: light-dark(rgb(0, 0, 0), rgb(0, 0, 0)); background-color: light-dark(rgb(255, 255, 255), rgb(255, 255, 255));&quot;&gt;&lt;b&gt;&lt;i&gt;Lookup&lt;/i&gt;&lt;/b&gt;&lt;/span&gt;&lt;/div&gt;" style="text;html=1;align=center;verticalAlign=middle;whiteSpace=wrap;rounded=0;" vertex="1" parent="1">
          <mxGeometry x="540" y="267" width="87" height="24" as="geometry" />
        </mxCell>
        <mxCell id="NI0qEB3K1_vKwQncWeiI-82" value="&lt;div&gt;&lt;span style=&quot;color: light-dark(rgb(0, 0, 0), rgb(0, 0, 0)); background-color: light-dark(rgb(255, 255, 255), rgb(255, 255, 255));&quot;&gt;&lt;b&gt;&lt;i&gt;PUSH&lt;/i&gt;&lt;/b&gt;&lt;/span&gt;&lt;/div&gt;" style="text;html=1;align=center;verticalAlign=middle;whiteSpace=wrap;rounded=0;" vertex="1" parent="1">
          <mxGeometry x="826" y="563" width="87" height="24" as="geometry" />
        </mxCell>
        <mxCell id="NI0qEB3K1_vKwQncWeiI-87" value="&lt;div&gt;&lt;span style=&quot;color: light-dark(rgb(0, 0, 0), rgb(0, 0, 0)); background-color: light-dark(rgb(255, 255, 255), rgb(255, 255, 255));&quot;&gt;&lt;b&gt;&lt;i&gt;File&lt;/i&gt;&lt;/b&gt;&lt;/span&gt;&lt;/div&gt;&lt;div&gt;&lt;span style=&quot;color: light-dark(rgb(0, 0, 0), rgb(0, 0, 0)); background-color: light-dark(rgb(255, 255, 255), rgb(255, 255, 255));&quot;&gt;&lt;b&gt;&lt;i&gt;Uploads&lt;/i&gt;&lt;/b&gt;&lt;/span&gt;&lt;/div&gt;&lt;div&gt;&lt;span style=&quot;color: light-dark(rgb(0, 0, 0), rgb(0, 0, 0)); background-color: light-dark(rgb(255, 255, 255), rgb(102, 255, 102));&quot;&gt;&lt;b&gt;&lt;i&gt;&lt;br&gt;&lt;/i&gt;&lt;/b&gt;&lt;/span&gt;&lt;/div&gt;" style="text;html=1;align=center;verticalAlign=middle;whiteSpace=wrap;rounded=0;" vertex="1" parent="1">
          <mxGeometry x="835" y="408" width="87" height="24" as="geometry" />
        </mxCell>
        <mxCell id="NI0qEB3K1_vKwQncWeiI-89" value="&lt;span style=&quot;background-color: light-dark(rgb(255, 255, 255), rgb(255, 255, 255)); color: light-dark(rgb(0, 0, 0), rgb(0, 0, 0));&quot;&gt;&lt;b&gt;&lt;i&gt;Background&amp;nbsp;&lt;/i&gt;&lt;/b&gt;&lt;/span&gt;&lt;div&gt;&lt;span style=&quot;background-color: light-dark(rgb(255, 255, 255), rgb(255, 255, 255)); color: light-dark(rgb(0, 0, 0), rgb(0, 0, 0));&quot;&gt;&lt;b&gt;&lt;i&gt;Sync&lt;/i&gt;&lt;/b&gt;&lt;/span&gt;&lt;/div&gt;" style="text;html=1;align=center;verticalAlign=middle;whiteSpace=wrap;rounded=0;rotation=0;" vertex="1" parent="1">
          <mxGeometry x="1044" y="387" width="70" height="17" as="geometry" />
        </mxCell>
        <mxCell id="NI0qEB3K1_vKwQncWeiI-96" value="&lt;span style=&quot;color: light-dark(rgb(0, 0, 0), rgb(0, 0, 0));&quot;&gt;&lt;b&gt;&lt;font style=&quot;font-size: 25px;&quot;&gt;Logical Architecture Diagram for Signal Server&lt;/font&gt;&lt;/b&gt;&lt;/span&gt;" style="text;html=1;align=center;verticalAlign=middle;whiteSpace=wrap;rounded=0;" vertex="1" parent="1">
          <mxGeometry x="301" y="44" width="605" height="30" as="geometry" />
        </mxCell>
      </root>
    </mxGraphModel>
  </diagram>
</mxfile>
